<?xml version="1.0" encoding="UTF-8" standalone="no"?>
<!-- Generator: Adobe Illustrator 16.0.0, SVG Export Plug-In . SVG Version: 6.00 Build 0)  -->

<svg
   version="1.1"
   id="Layer_1"
   x="0px"
   y="0px"
   width="1001.115"
   height="429.70901"
   viewBox="-194 331.438 1001.115 429.70901"
   enable-background="new -194 331.438 1000 129.125"
   xml:space="preserve"
   xmlns="http://www.w3.org/2000/svg"
   xmlns:svg="http://www.w3.org/2000/svg"
   xmlns:rdf="http://www.w3.org/1999/02/22-rdf-syntax-ns#"
   xmlns:cc="http://creativecommons.org/ns#"
   xmlns:dc="http://purl.org/dc/elements/1.1/"><metadata
   id="metadata47"><rdf:RDF><cc:Work
       rdf:about=""><dc:format>image/svg+xml</dc:format><dc:type
         rdf:resource="http://purl.org/dc/dcmitype/StillImage" /></cc:Work></rdf:RDF></metadata><defs
   id="defs45" />

<g
   aria-label="MEDIA GROUP"
   transform="scale(0.98559884,1.0146116)"
   id="text2062"
   style="font-weight:bold;font-size:136.649px;line-height:1.25;font-family:Futura;-inkscape-font-specification:'Futura Bold';word-spacing:0px;stroke-width:3.41623"><g
     id="g2341"><g
       id="g2384"
       transform="translate(0,6.3731588e-4)"><g
         id="g48"
         transform="scale(1.0146116,0.98559882)"><path
           id="path840"
           d="M -96.054969,470.88822 V 331.438 l 24.318,0.0107 24.31807,0.0107 61.33523,92.85115 c 33.73438,51.06814 61.47811,92.93945 61.65275,93.04738 0.17463,0.10801 0.31751,-41.67982 0.31751,-92.86165 v -93.05797 h 26.033969 26.03399 l -0.10145,139.34932 -0.10144,139.34931 -24.24862,0.10406 -24.248599,0.10401 -61.52035,-93.22496 c -33.83626,-51.27358 -61.65664,-93.23113 -61.82313,-93.23903 -0.1665,-0.008 -0.30272,41.94179 -0.30272,93.22154 v 93.23591 h -25.83161 -25.8316 z"
           style="fill:#000000;fill-opacity:1;stroke-width:0.403619" /><path
           d="m 280.11762,472.86882 c 0,-4.69132 -2.66163,-13.97533 -5.42129,-18.91011 -6.0678,-10.85023 -14.62569,-15.68624 -28.76574,-16.2554 -6.40454,-0.2578 -10.19952,0.18869 -14.74499,1.73469 -11.20999,3.81277 -20.45063,14.43074 -25.27453,29.04167 -0.65721,1.99067 -1.31712,4.20971 -1.46642,4.93117 l -0.27147,1.31177 h 37.9722 37.97224 z M 238.5449,610.06603 c -25.36207,-2.57158 -42.57605,-9.64488 -58.085,-23.86738 -16.65381,-15.27239 -26.95157,-37.06708 -30.168,-63.84905 -1.00434,-8.36271 -1.00332,-30.11685 0.002,-38.34377 3.15271,-25.80495 13.12817,-46.3795 30.65219,-63.22062 14.36448,-13.80472 30.71355,-21.73909 50.33386,-24.42755 4.87979,-0.66865 19.77889,-0.66972 25.62978,-0.002 15.11395,1.72525 29.40842,6.79066 39.75644,14.08815 4.82506,3.40267 13.12341,11.68161 16.48838,16.44982 8.87969,12.58266 14.19087,26.06282 16.77714,42.58177 1.16258,7.42555 1.44293,13.28211 1.44431,30.1705 v 17.05288 h -64.83879 -64.83872 l 0.27603,3.73348 c 1.00114,13.54146 6.52535,27.6521 14.1349,36.10506 7.73164,8.58852 20.39638,12.73176 36.96448,12.09283 14.42368,-0.55623 25.32768,-3.2371 35.92206,-8.83181 5.09718,-2.69174 8.71061,-5.23052 13.9845,-9.82536 2.4052,-2.09552 4.48146,-3.81005 4.61392,-3.81005 0.32092,0 21.76344,34.07008 21.76344,34.57997 0,0.42494 -6.66306,6.4242 -9.69907,8.73282 -4.66931,3.55063 -11.48065,7.48975 -18.60553,10.75997 -15.19798,6.97564 -31.96861,10.18933 -52.38304,10.03801 -4.79265,-0.0355 -9.34958,-0.12903 -10.12655,-0.20782 z"
           style="fill:#000000;fill-opacity:1;stroke-width:0.403619"
           id="path836" /><path
           id="path834"
           d="m 399.85835,610.03939 c -0.10236,-0.16851 -14.75864,-48.25625 -32.56944,-106.86168 -17.81077,-58.60542 -32.47007,-106.78234 -32.57619,-107.05984 -0.15321,-0.40058 5.50831,-0.50451 27.48256,-0.50451 h 27.67548 l 0.39551,1.51356 c 0.21751,0.83247 7.41072,28.66701 15.98487,61.85456 8.57419,33.18754 15.77628,61.05971 16.00469,61.93816 0.29638,1.13977 0.50743,1.42874 0.73705,1.00905 0.17698,-0.32348 7.70968,-23.11006 16.73939,-50.63684 9.02968,-27.52679 18.32554,-55.81705 20.65749,-62.86726 l 4.23985,-12.81853 20.57325,0.10449 20.57329,0.1045 8.2291,24.82253 c 4.52601,13.6524 14.15995,42.77299 21.40869,64.71243 7.24875,21.93943 13.25371,39.8157 13.34436,39.72504 0.0906,-0.0906 7.16682,-28.93879 15.72482,-64.10699 8.55801,-35.16819 15.65479,-64.26001 15.77059,-64.64849 0.19786,-0.66377 1.87513,-0.70633 27.83124,-0.70633 18.05435,0 27.62068,0.13912 27.62068,0.40165 0,0.31376 -62.9055,207.66129 -64.62391,213.0117 l -0.4213,1.31172 h -20.68928 -20.68929 l -22.14288,-65.79869 c -12.17859,-36.1893 -22.26748,-65.56769 -22.41981,-65.28531 -0.15224,0.28237 -0.47324,1.42154 -0.71319,2.53149 -0.23995,1.10996 -9.95796,30.44294 -21.59558,65.18441 l -21.1593,63.16633 -20.60328,0.1045 c -11.33183,0.0575 -20.68707,-0.0331 -20.78946,-0.20181 z"
           style="fill:#000000;fill-opacity:1;stroke-width:0.403619" /><path
           id="path832"
           d="m 709.16423,609.91338 c -27.12568,-2.38478 -47.18085,-11.147 -61.8025,-27.00182 -10.76544,-11.67338 -16.11694,-24.37448 -16.24892,-38.56473 -0.0429,-4.61207 0.0695,-5.57503 0.92897,-7.95731 l 0.9778,-2.71027 2.25115,-0.51868 c 1.68252,-0.38766 7.65507,-0.51868 23.64297,-0.51868 h 21.3918 l 0.31223,5.01581 c 0.41577,6.67914 1.16582,10.07022 3.09116,13.97597 2.62195,5.3188 5.68602,8.25672 11.97262,11.47979 7.17706,3.67958 14.85308,5.3546 24.58223,5.36415 8.71259,0.009 14.51663,-0.9136 20.38274,-3.23845 5.83043,-2.31069 10.78098,-6.51497 12.83673,-10.90171 0.98446,-2.10069 1.08811,-2.76492 1.08811,-6.97305 0,-4.44324 -0.0593,-4.7717 -1.3273,-7.34625 -3.82061,-7.75761 -13.52711,-12.14624 -39.87413,-18.02839 -23.41512,-5.22761 -40.23976,-11.58462 -53.04353,-20.04191 -12.6599,-8.36229 -19.87793,-18.42373 -22.7163,-31.66503 -1.10043,-5.13356 -1.17203,-15.13586 -0.14555,-20.33189 1.51991,-7.69361 3.96108,-13.73966 8.0612,-19.96516 10.29816,-15.63637 27.93809,-27.1187 48.70459,-31.70322 20.83003,-4.59855 45.17663,-3.04531 63.36812,4.04267 18.71059,7.29024 34.2403,21.56788 40.85012,37.55659 2.6745,6.46946 3.68553,11.4958 3.71995,18.49425 0.0266,5.41327 -0.07,6.31572 -0.91294,8.52347 l -0.94273,2.46917 -2.76758,0.45706 c -1.81071,0.29903 -10.03206,0.45706 -23.7789,0.45706 H 752.755 V 465.726 c 0,-6.99078 -1.32375,-10.91917 -5.36567,-15.92332 -4.04022,-5.00202 -9.80486,-8.75225 -16.71699,-10.87535 -3.34749,-1.02821 -4.01274,-1.09081 -11.82131,-1.11266 -8.91476,-0.0249 -11.80943,0.37232 -17.02959,2.3372 -6.54101,2.46201 -11.52319,7.42961 -13.29201,13.2531 -1.22563,4.0351 -0.9749,9.34326 0.59263,12.5472 3.08809,6.3118 11.33087,9.84337 34.5724,14.81231 27.16595,5.80796 44.31111,12.12274 58.5247,21.55538 5.6683,3.76167 13.43368,11.54202 16.52104,16.55283 7.84328,12.72987 9.43442,29.4646 4.27024,44.91247 -2.94645,8.81383 -7.67008,16.13487 -14.85224,23.01906 -12.87947,12.34515 -30.39107,19.96856 -51.76634,22.5357 -6.3689,0.7649 -21.43978,1.08234 -27.22767,0.57346 z"
           style="fill:#000000;fill-opacity:1;stroke-width:0.403619" /><path
           id="path830"
           d="m -188.07997,512.86456 v -97.07028 h 25.8316 25.8316 v 97.07028 97.07029 h -25.8316 -25.8316 z"
           style="fill:#d71921;fill-opacity:1;stroke-width:0.403619" /><path
           id="path826"
           d="m -167.81797,394.75939 c -1.1764,-0.19578 -3.7255,-0.95192 -5.6647,-1.68029 -13.5584,-5.09277 -22.1546,-19.26621 -20.2553,-33.3972 2.1861,-16.26524 15.4002,-27.89734 31.6914,-27.89734 17.7258,0 31.684,13.98334 31.684,31.74111 0,19.72171 -17.74,34.51499 -37.4554,31.23372 z"
           style="fill:#d71921;fill-opacity:1;stroke-width:0.403619" /></g><g
         id="g2355"><g
           id="g2327"
           transform="matrix(1.0235859,0,0,1,9.0766533,0)"><path
             d="m -200.41327,746.76978 h 26.64656 l 8.60889,-59.30567 h 0.27329 l 23.64028,59.30567 h 10.65862 l 24.73347,-59.30567 h 0.2733 l 7.515696,59.30567 H -71.27996 L -86.857946,643.73643 H -113.5045 l -22.13714,55.06955 -20.9073,-55.06955 h -26.37325 z"
             id="path2276" /><path
             d="M -1.3156968,666.42016 V 643.73643 H -59.938119 V 746.76978 H -1.3156968 V 724.08604 H -33.154914 V 706.32167 H -2.9554848 V 683.63794 H -33.154914 v -17.21778 z"
             id="path2278" /><path
             d="m 15.218726,746.76978 h 37.988423 c 28.559641,0 52.336571,-22.54709 52.336571,-51.51668 0,-28.96959 -23.640281,-51.51667 -52.336571,-51.51667 H 15.218726 Z m 26.783205,-80.34962 h 6.285854 c 17.217774,0 29.379535,10.38533 29.379535,28.83294 0,20.0874 -13.6649,28.83294 -29.652833,28.83294 h -6.012556 z"
             id="path2280" /><path
             d="m 144.76182,643.73643 h -26.78321 v 103.03335 h 26.78321 z"
             id="path2282" /><path
             d="m 225.38465,728.86876 6.6958,17.90102 H 260.6401 L 221.83178,643.73643 h -29.24289 l -39.62821,103.03335 h 28.42299 l 7.10575,-17.90102 z m -7.24239,-20.49735 h -22.27379 l 11.06857,-32.79576 h 0.2733 z"
             id="path2284" /></g><g
           id="g2320"
           transform="matrix(0.98743164,0,0,1,-0.44533318,0)"><path
             d="m 365.44945,689.24055 v 21.04394 h 21.86384 c -1.09319,11.88847 -9.97538,17.90102 -21.59054,17.90102 -17.62772,0 -27.19315,-16.26123 -27.19315,-32.24916 0,-15.71464 9.15548,-32.52247 26.7832,-32.52247 10.79527,0 18.58427,6.55916 22.27379,16.39788 l 25.41671,-10.65862 c -8.88218,-19.26751 -25.28006,-28.83294 -46.46066,-28.83294 -33.20571,0 -55.88944,22.00049 -55.88944,55.4795 0,32.38581 22.54709,54.3863 54.9329,54.3863 17.21777,0 32.38581,-6.1492 42.49784,-20.22405 9.15548,-12.84501 10.24867,-25.69001 10.52197,-40.7214 z"
             id="path2286" /><path
             d="m 484.19726,704.54523 c 14.62145,-2.59633 22.54709,-14.89474 22.54709,-29.10623 0,-22.00049 -15.44134,-31.70257 -35.80204,-31.70257 h -40.03816 v 103.03335 h 26.78321 v -39.62822 h 0.27329 l 25.28007,39.62822 h 33.34236 z m -26.5099,-40.31145 h 2.59633 c 8.74553,0 18.58426,1.63979 18.58426,12.845 0,11.20522 -9.83873,12.84501 -18.58426,12.84501 h -2.59633 z"
             id="path2288" /><path
             d="m 575.61527,640.3202 c -29.65284,0 -56.98264,21.86384 -56.98264,53.01982 0,33.34235 23.91358,56.84598 56.98264,56.84598 33.06905,0 56.98263,-23.50363 56.98263,-56.84598 0,-31.15598 -27.3298,-53.01982 -56.98263,-53.01982 z m 0,25.96331 c 15.98793,0 29.10623,12.98166 29.10623,27.19315 0,17.76437 -13.1183,30.74603 -29.10623,30.74603 -15.98794,0 -29.10624,-12.98166 -29.10624,-30.74603 0,-14.21149 13.1183,-27.19315 29.10624,-27.19315 z"
             id="path2290" /><path
             d="m 707.61806,643.73643 v 54.24965 c 0,13.3916 -0.95655,28.01305 -18.17432,28.01305 -17.21778,0 -18.17432,-14.62145 -18.17432,-28.01305 v -54.24965 h -26.7832 v 57.93917 c 0,13.25496 0.54659,26.37326 10.79527,36.34864 8.60889,8.47224 22.13714,11.47852 34.16225,11.47852 12.02511,0 25.55336,-3.00628 34.16225,-11.47852 10.24867,-9.97538 10.79527,-23.09368 10.79527,-36.34864 v -57.93917 z"
             id="path2292" /><path
             d="m 751.34574,746.76978 h 26.78321 v -34.16226 h 15.16803 c 23.36698,0 36.48529,-10.65862 36.48529,-34.98214 0,-23.64028 -15.30469,-33.88895 -37.44183,-33.88895 h -40.9947 z m 26.78321,-81.44281 h 4.50941 c 10.38533,0 19.26751,0.13665 19.26751,13.1183 0,12.57171 -9.56543,12.57171 -19.26751,12.57171 h -4.50941 z"
             id="path2294" /></g></g></g></g></g></svg>
